# Created by Kenney (www.kenney.nl)

mtllib Section1_2.mtl

g mergedBlocks

v 0.075 8.979904E-18 0.075
v -0.075 8.979904E-18 0.075
v 0.07499999 0.5 0.181066
v -0.075 0.5 0.181066
v 0.181066 0.5 -0.075
v 0.181066 0.5 0.075
v 0.075 0.5 -0.181066
v -0.075 0.5 -0.181066
v -0.181066 0.5 -0.075
v -0.181066 0.5 0.075
v 0.075 8.979904E-18 -0.075
v -0.075 8.979904E-18 -0.075
v 0.1287202 0.766 -0.3085715
v 0.08581346 0.6940989 -0.1373159
v -0.1287202 0.766 -0.3085715
v -0.08581345 0.6940989 -0.1373159
v -0.07601238 0.6940989 0.1429746
v -0.2028706 0.766 0.2657607
v -0.1618258 0.6940989 -0.005658663
v -0.3315908 0.766 0.04281076
v 0.3315908 0.766 0.0428108
v 0.2028706 0.766 0.2657607
v 0.1618258 0.6940989 -0.005658643
v 0.07601237 0.6940989 0.1429746
v 0.04290672 0.5 -0.0665
v -0.04290672 0.5 -0.0665
v 0.07904405 0.5 -0.003908314
v 0.03613732 0.5 0.07040831
v 2.412823E-08 0.66625 -0.4313323
v -0.07904405 0.5 -0.003908315
v -0.03613732 0.5 0.07040831
v 0.3735447 0.66625 0.2156662
v -0.3735447 0.66625 0.2156661
v -1.5625 4.16771E-31 -0.5
v -1.5625 2.6 -0.5
v -1.5 1.642348E-15 -0.4375
v -1.5 2.6 -0.4375
v -0.4375 9.384848E-16 -0.5
v -0.5 1.642348E-15 -0.4375
v -0.4375 2.6 -0.5
v -0.5 2.6 -0.4375
v -0.5 1.642348E-15 -0.5625
v -1.5 1.642348E-15 -0.5625
v -0.5 2.6 -0.5625
v -1.5 2.6 -0.5625
v -0.5625 4.16771E-31 1.5
v -0.5625 2.6 1.5
v -0.5 1.642348E-15 1.5625
v -0.5 2.6 1.5625
v 0.5625 9.384848E-16 1.5
v 0.5 1.642348E-15 1.5625
v 0.5625 2.6 1.5
v 0.5 2.6 1.5625
v 0.5 1.642348E-15 1.4375
v -0.5 1.642348E-15 1.4375
v 0.5 2.6 1.4375
v -0.5 2.6 1.4375
v 0.5000001 4.16771E-31 0.4375
v 0.5000001 2.6 0.4375
v 0.4375001 1.642348E-15 0.5
v 0.4375001 2.6 0.5
v 0.5 9.384848E-16 1.5625
v 0.4375 1.642348E-15 1.5
v 0.5 2.6 1.5625
v 0.4375 2.6 1.5
v 0.5625 1.642348E-15 1.5
v 0.5625001 1.642348E-15 0.5
v 0.5625 2.6 1.5
v 0.5625001 2.6 0.5
v 0.5000001 4.16771E-31 -0.5625
v 0.5000001 2.6 -0.5625
v 0.4375001 1.642348E-15 -0.5
v 0.4375001 2.6 -0.5
v 0.5 9.384848E-16 0.5625001
v 0.4375 1.642348E-15 0.5000001
v 0.5 2.6 0.5625001
v 0.4375 2.6 0.5000001
v 0.5625 1.642348E-15 0.5000001
v 0.5625001 1.642348E-15 -0.5
v 0.5625 2.6 0.5000001
v 0.5625001 2.6 -0.5
v -0.5625 4.16771E-31 -0.5
v -0.5625 2.6 -0.5
v 0.5625 9.384848E-16 -0.5
v 0.5 1.642348E-15 -0.4375
v 0.5625 2.6 -0.5
v 0.5 2.6 -0.4375
v 0.5 1.642348E-15 -0.5625
v 0.5 2.6 -0.5625
v -2.5625 4.16771E-31 -0.5
v -2.5625 2.6 -0.5
v -2.5 1.642348E-15 -0.4375
v -2.5 2.6 -0.4375
v -1.4375 9.384848E-16 -0.5
v -1.4375 2.6 -0.5
v -2.5 1.642348E-15 -0.5625
v -2.5 2.6 -0.5625
v -3.5625 4.16771E-31 1.5
v -3.5625 2.6 1.5
v -3.5 1.642348E-15 1.5625
v -3.5 2.6 1.5625
v -2.4375 9.384848E-16 1.5
v -2.5 1.642348E-15 1.5625
v -2.4375 2.6 1.5
v -2.5 2.6 1.5625
v -2.5 1.642348E-15 1.4375
v -3.5 1.642348E-15 1.4375
v -2.5 2.6 1.4375
v -3.5 2.6 1.4375
v -5.5 4.16771E-31 0.4375
v -5.5 2.6 0.4375
v -5.5625 1.642348E-15 0.5
v -5.5625 2.6 0.5
v -5.5 9.384848E-16 1.5625
v -5.5625 1.642348E-15 1.5
v -5.5 2.6 1.5625
v -5.5625 2.6 1.5
v -5.4375 1.642348E-15 1.5
v -5.4375 1.642348E-15 0.5
v -5.4375 2.6 1.5
v -5.4375 2.6 0.5
v -5.5625 4.16771E-31 1.5
v -5.5625 2.6 1.5
v -5.5 1.642348E-15 1.5625
v -5.5 2.6 1.5625
v -4.4375 9.384848E-16 1.5
v -4.5 1.642348E-15 1.5625
v -4.4375 2.6 1.5
v -4.5 2.6 1.5625
v -4.5 1.642348E-15 1.4375
v -5.5 1.642348E-15 1.4375
v -4.5 2.6 1.4375
v -5.5 2.6 1.4375
v -5.5 4.16771E-31 -0.5625
v -5.5 2.6 -0.5625
v -5.5625 1.642348E-15 -0.5
v -5.5625 2.6 -0.5
v -5.5 9.384848E-16 0.5625001
v -5.5625 1.642348E-15 0.5000001
v -5.5 2.6 0.5625001
v -5.5625 2.6 0.5000001
v -5.4375 1.642348E-15 0.5000001
v -5.4375 1.642348E-15 -0.5
v -5.4375 2.6 0.5000001
v -5.4375 2.6 -0.5
v -5.5625 4.16771E-31 -0.5
v -5.5 1.642348E-15 -0.4375
v -5.5 2.6 -0.4375
v -4.4375 9.384848E-16 -0.5
v -4.5 1.642348E-15 -0.4375
v -4.4375 2.6 -0.5
v -4.5 2.6 -0.4375
v -4.5 1.642348E-15 -0.5625
v -5.5 1.642348E-15 -0.5625
v -4.5 2.6 -0.5625
v -4.5625 4.16771E-31 -0.5
v -4.5625 2.6 -0.5
v -3.4375 9.384848E-16 -0.5
v -3.5 1.642348E-15 -0.4375
v -3.4375 2.6 -0.5
v -3.5 2.6 -0.4375
v -3.5 1.642348E-15 -0.5625
v -3.5 2.6 -0.5625
v -3.5625 4.16771E-31 -0.5
v -3.5625 2.6 -0.5
v -2.4375 9.384848E-16 -0.5
v -2.4375 2.6 -0.5
v -2.5625 4.16771E-31 1.5
v -2.5625 2.6 1.5
v -1.4375 9.384848E-16 1.5
v -1.5 1.642348E-15 1.5625
v -1.4375 2.6 1.5
v -1.5 2.6 1.5625
v -1.5 1.642348E-15 1.4375
v -1.5 2.6 1.4375
v -1.5625 2.1 1.5
v -1.5625 2.6 1.5
v -1.5 2.1 1.5625
v -0.4375 2.1 1.5
v -0.5 2.1 1.5625
v -0.4375 2.6 1.5
v -0.5 2.1 1.4375
v -1.5 2.1 1.4375
v -4.5625 2.1 1.5
v -4.5625 2.6 1.5
v -4.5 2.1 1.5625
v -3.4375 2.1 1.5
v -3.5 2.1 1.5625
v -3.4375 2.6 1.5
v -3.5 2.1 1.4375
v -4.5 2.1 1.4375

vn 0 -0.2075143 0.978232
vn 0 1 0
vn 0.978232 -0.2075143 0
vn 0 -1 0
vn 0.6992836 -0.1483404 -0.6992836
vn -0.978232 -0.2075143 0
vn -0.6992836 -0.1483404 -0.6992836
vn -0.6992836 -0.1483404 0.6992836
vn 0.6992836 -0.1483404 0.6992836
vn 0 -0.2075143 -0.978232
vn 0 0.9997889 -0.02054596
vn 0 0.7318918 0.6814209
vn 0 0.9997889 -0.02054594
vn 0 -0.9997889 0.02054594
vn 0 -0.7318918 -0.6814209
vn 0 -0.9997889 0.02054596
vn 0.5901278 0.7318918 -0.3407104
vn -0.01779331 0.9997889 0.01027297
vn -0.01779332 0.9997889 0.01027298
vn -0.5901278 -0.7318918 0.3407104
vn 0.01779331 -0.9997889 -0.01027297
vn 0.01779332 -0.9997889 -0.01027298
vn 0.01779331 0.9997889 0.01027297
vn 0.01779332 0.9997889 0.01027298
vn -0.5901278 0.7318918 -0.3407104
vn 0.5901278 -0.7318918 0.3407104
vn -0.01779332 -0.9997889 -0.01027298
vn -0.01779331 -0.9997889 -0.01027297
vn 0 0.3427455 0.9394283
vn 0 -0.3427455 -0.9394283
vn -0.8135687 0.3427455 -0.4697142
vn 0.8135687 -0.3427455 0.4697142
vn 0 0.7760929 -0.6306185
vn 0 -0.7760929 0.6306185
vn 0.8135687 0.3427455 -0.4697142
vn -0.8135687 -0.3427455 0.4697142
vn 0.5461317 0.7760929 0.3153093
vn -0.5461317 -0.7760929 -0.3153093
vn -0.5461317 0.7760929 0.3153093
vn 0.5461317 -0.7760929 -0.3153093
vn -0.7071068 0 0.7071068
vn 0.7071068 0 0.7071068
vn 0.7071068 0 -0.7071068
vn 0 0 -1
vn -0.7071068 0 -0.7071068
vn 0 0 1
vn -0.7071067 0 -0.7071068
vn -0.7071068 0 0.7071067
vn 0.7071067 0 0.7071068
vn 1 0 1.192093E-07
vn 0.7071068 0 -0.7071067
vn -1 0 -1.192093E-07

vt 0.075 8.979904E-18
vt -0.075 8.979904E-18
vt 0.07499999 0.5
vt -0.075 0.5
vt -0.181066 -0.075
vt -0.181066 0.075
vt -0.075 -0.181066
vt -0.07499999 0.181066
vt 0.075 -0.181066
vt 0.075 0.181066
vt 0.181066 -0.075
vt 0.181066 0.075
vt 0.075 0.5
vt -0.075 -0.075
vt -0.075 0.075
vt 0.075 -0.075
vt 0.075 0.075
vt 0.181066 0.5
vt 0.075 0.5
vt -0.181066 0.5
vt 0.181066 0.5
vt -0.1287202 -0.3085715
vt -0.08581346 -0.1373159
vt 0.1287202 -0.3085715
vt 0.08581345 -0.1373159
vt 0.1287202 0.3085715
vt -0.08581346 0.1373159
vt -0.1287202 0.3085715
vt 0.08581345 0.1373159
vt 0.07601238 0.1429746
vt 0.2028706 0.2657607
vt 0.1618258 -0.005658663
vt 0.3315908 0.04281076
vt 0.1618258 0.005658663
vt 0.2028706 -0.2657607
vt 0.07601238 -0.1429746
vt 0.3315908 -0.04281076
vt -0.3315908 0.0428108
vt -0.2028706 0.2657607
vt -0.1618258 -0.005658643
vt -0.07601237 0.1429746
vt -0.1618258 0.005658643
vt -0.2028706 -0.2657607
vt -0.3315908 -0.0428108
vt -0.07601237 -0.1429746
vt 0.04290672 0.5
vt -0.04290672 0.5
vt 0.08581346 0.6940989
vt -0.08581345 0.6940989
vt -0.08581346 0.6940989
vt 0.08581345 0.6940989
vt -0.005658643 0.6940989
vt 0.1429746 0.6940989
vt -0.003908314 0.5
vt 0.07040831 0.5
vt 0.003908314 0.5
vt -0.1429746 0.6940989
vt 0.005658643 0.6940989
vt -0.07040831 0.5
vt -2.412823E-08 -0.4313323
vt -2.412823E-08 0.4313323
vt 0.005658663 0.6940989
vt 0.003908315 0.5
vt -0.1429746 0.6940989
vt -0.07040831 0.5
vt 0.1429746 0.6940989
vt -0.003908315 0.5
vt -0.005658663 0.6940989
vt 0.07040831 0.5
vt -0.3735447 0.2156662
vt -0.3735447 -0.2156662
vt 0.3735447 0.2156661
vt 0.3735447 -0.2156661
vt -1.5625 4.16771E-31
vt -1.5625 2.6
vt -1.5 1.642348E-15
vt -1.5 2.6
vt -0.4375 9.384848E-16
vt -0.5 1.642348E-15
vt -0.4375 2.6
vt -0.5 2.6
vt 0.4375 0.5
vt 0.5 0.5625
vt 0.5 0.4375
vt 1.5 0.5625
vt 1.5 0.4375
vt 1.5625 0.5
vt 0.4375 -0.5
vt 0.5 -0.4375
vt 0.5 -0.5625
vt 1.5 -0.5625
vt 1.5 -0.4375
vt 1.5625 -0.5
vt 0.5 2.6
vt 0.5 1.642348E-15
vt 0.4375 2.6
vt 0.4375 9.384848E-16
vt 1.5 1.642348E-15
vt 1.5 2.6
vt 1.5625 4.16771E-31
vt 1.5625 2.6
vt -0.5625 4.16771E-31
vt -0.5625 2.6
vt 0.5625 9.384848E-16
vt 0.5625 2.6
vt -0.5625 -1.5
vt -0.5 -1.4375
vt -0.5 -1.5625
vt 0.5 -1.4375
vt 0.5 -1.5625
vt 0.5625 -1.5
vt -0.5625 1.5
vt -0.5 1.5625
vt -0.5 1.4375
vt 0.5 1.4375
vt 0.5 1.5625
vt 0.5625 1.5
vt -0.5625 9.384848E-16
vt 0.5625 4.16771E-31
vt -0.5000001 4.16771E-31
vt -0.5000001 2.6
vt -0.4375001 1.642348E-15
vt -0.4375001 2.6
vt 0.5 9.384848E-16
vt 0.4375 1.642348E-15
vt -0.5 -1.5625
vt -0.5625 -1.5
vt -0.4375 -1.5
vt -0.5625001 -0.5
vt -0.4375001 -0.5
vt -0.5000001 -0.4375
vt -0.5 1.5625
vt -0.4375 1.5
vt -0.5625 1.5
vt -0.5625001 0.5
vt -0.4375001 0.5
vt -0.5000001 0.4375
vt 0.5625 1.642348E-15
vt -1.5 1.642348E-15
vt -1.5 2.6
vt -0.5625001 1.642348E-15
vt -0.5625001 2.6
vt 1.5 1.642348E-15
vt 1.5 2.6
vt -0.5 -0.5625001
vt -0.5625 -0.5000001
vt -0.4375 -0.5000001
vt -0.5000001 0.5625
vt -0.5 0.5625001
vt -0.4375 0.5000001
vt -0.5625 0.5000001
vt -0.5000001 -0.5625
vt -0.5000001 1.642348E-15
vt 0.5000001 1.642348E-15
vt 0.5000001 2.6
vt -0.5625 0.5
vt -0.5 0.5625
vt -0.5 0.4375
vt 0.5625 0.5
vt -0.5625 -0.5
vt -0.5 -0.4375
vt -0.5 -0.5625
vt 0.5625 -0.5
vt -2.5625 4.16771E-31
vt -2.5625 2.6
vt -2.5 1.642348E-15
vt -2.5 2.6
vt -1.4375 9.384848E-16
vt -1.4375 2.6
vt 1.4375 0.5
vt 2.5 0.5625
vt 2.5 0.4375
vt 2.5625 0.5
vt 1.4375 -0.5
vt 2.5 -0.5625
vt 2.5 -0.4375
vt 2.5625 -0.5
vt 1.4375 2.6
vt 1.4375 9.384848E-16
vt 2.5 1.642348E-15
vt 2.5 2.6
vt 2.5625 4.16771E-31
vt 2.5625 2.6
vt -3.5625 4.16771E-31
vt -3.5625 2.6
vt -3.5 1.642348E-15
vt -3.5 2.6
vt -2.4375 9.384848E-16
vt -2.4375 2.6
vt 2.4375 -1.5
vt 2.5 -1.4375
vt 2.5 -1.5625
vt 3.5 -1.4375
vt 3.5 -1.5625
vt 3.5625 -1.5
vt 2.4375 1.5
vt 2.5 1.5625
vt 2.5 1.4375
vt 3.5 1.4375
vt 3.5 1.5625
vt 3.5625 1.5
vt 2.4375 2.6
vt 2.4375 9.384848E-16
vt 3.5 1.642348E-15
vt 3.5 2.6
vt 3.5625 4.16771E-31
vt 3.5625 2.6
vt 5.5 4.16771E-31
vt 5.5 2.6
vt 5.5625 1.642348E-15
vt 5.5625 2.6
vt -5.5 9.384848E-16
vt -5.5625 1.642348E-15
vt -5.5 2.6
vt -5.5625 2.6
vt 5.5 -1.5625
vt 5.4375 -1.5
vt 5.5625 -1.5
vt 5.4375 -0.5
vt 5.5625 -0.5
vt 5.5 -0.4375
vt 5.5 1.5625
vt 5.5625 1.5
vt 5.4375 1.5
vt 5.4375 0.5
vt 5.5625 0.5
vt 5.5 0.4375
vt -5.4375 2.6
vt -5.4375 1.642348E-15
vt 5.4375 1.642348E-15
vt 5.4375 2.6
vt -5.5625 4.16771E-31
vt -5.5 1.642348E-15
vt -4.4375 9.384848E-16
vt -4.5 1.642348E-15
vt -4.4375 2.6
vt -4.5 2.6
vt 4.4375 -1.5
vt 4.5 -1.4375
vt 4.5 -1.5625
vt 5.5 -1.4375
vt 5.5 -1.5625
vt 5.5625 -1.5
vt 4.4375 1.5
vt 4.5 1.5625
vt 4.5 1.4375
vt 5.5 1.4375
vt 5.5 1.5625
vt 5.5625 1.5
vt 4.5 2.6
vt 4.5 1.642348E-15
vt 4.4375 2.6
vt 4.4375 9.384848E-16
vt 5.5 1.642348E-15
vt 5.5625 4.16771E-31
vt 5.5 -0.5625001
vt 5.4375 -0.5000001
vt 5.5625 -0.5000001
vt 5.5 0.5625
vt 5.5 0.5625001
vt 5.5625 0.5000001
vt 5.4375 0.5000001
vt 5.5 -0.5625
vt 4.4375 0.5
vt 4.5 0.5625
vt 4.5 0.4375
vt 4.4375 -0.5
vt 4.5 -0.4375
vt 4.5 -0.5625
vt -4.5625 4.16771E-31
vt -4.5625 2.6
vt -3.4375 9.384848E-16
vt -3.4375 2.6
vt 3.4375 0.5
vt 3.5 0.5625
vt 3.5 0.4375
vt 4.5625 0.5
vt 3.4375 -0.5
vt 3.5 -0.4375
vt 3.5 -0.5625
vt 4.5625 -0.5
vt 3.4375 2.6
vt 3.4375 9.384848E-16
vt 4.5625 4.16771E-31
vt 4.5625 2.6
vt 2.4375 0.5
vt 3.5625 0.5
vt 2.4375 -0.5
vt 3.5625 -0.5
vt 1.4375 -1.5
vt 1.5 -1.4375
vt 1.5 -1.5625
vt 2.5625 -1.5
vt 1.4375 1.5
vt 1.5 1.5625
vt 1.5 1.4375
vt 2.5625 1.5
vt -1.5625 2.1
vt -1.5 2.1
vt -0.4375 2.1
vt -0.5 2.1
vt 0.4375 -1.5
vt 1.5625 -1.5
vt 0.4375 1.5
vt 1.5625 1.5
vt 0.5 2.1
vt 0.4375 2.1
vt 1.5 2.1
vt 1.5625 2.1
vt -4.5625 2.1
vt -4.5 2.1
vt -3.4375 2.1
vt -3.5 2.1
vt 3.4375 -1.5
vt 4.5625 -1.5
vt 3.4375 1.5
vt 4.5625 1.5
vt 3.5 2.1
vt 3.4375 2.1
vt 4.5 2.1
vt 4.5625 2.1

usemtl wood(Clone)

f 3/3/1 2/2/1 1/1/1
f 2/2/1 3/3/1 4/4/1
f 7/7/2 6/6/2 5/5/2
f 6/6/2 7/7/2 3/8/2
f 3/8/2 7/7/2 8/9/2
f 3/8/2 8/9/2 4/10/2
f 4/10/2 8/9/2 9/11/2
f 4/10/2 9/11/2 10/12/2
f 5/13/3 1/2/3 11/1/3
f 1/2/3 5/13/3 6/4/3
f 2/16/4 11/15/4 1/14/4
f 11/15/4 2/16/4 12/17/4
f 5/13/5 11/1/5 7/18/5
f 12/2/6 10/19/6 9/4/6
f 10/19/6 12/2/6 2/1/6
f 8/19/7 12/1/7 9/18/7
f 4/4/8 10/20/8 2/2/8
f 3/3/9 1/1/9 6/21/9
f 8/19/10 11/2/10 12/1/10
f 11/2/10 8/19/10 7/4/10

usemtl foliage(Clone)

f 15/24/13 14/23/12 13/22/11
f 14/23/12 15/24/13 16/25/12
f 13/28/16 14/27/15 15/26/14
f 16/29/15 15/26/14 14/27/15
f 19/32/17 18/31/18 17/30/17
f 18/31/18 19/32/17 20/33/19
f 17/36/20 18/35/21 19/34/20
f 20/37/22 19/34/20 18/35/21
f 23/40/25 22/39/24 21/38/23
f 22/39/24 23/40/25 24/41/25
f 21/44/28 22/43/27 23/42/26
f 24/45/26 23/42/26 22/43/27
f 14/48/12 26/47/29 25/46/29
f 26/47/29 14/48/12 16/49/12
f 25/47/30 26/46/30 14/50/15
f 16/51/15 14/50/15 26/46/30
f 27/54/31 24/53/25 23/52/25
f 24/53/25 27/54/31 28/55/31
f 23/58/26 24/57/26 27/56/32
f 28/59/32 27/56/32 24/57/26
f 15/24/13 13/22/11 29/60/33
f 29/61/34 13/28/16 15/26/14
f 17/64/17 30/63/35 19/62/17
f 30/63/35 17/64/17 31/65/35
f 19/68/20 30/67/36 17/66/20
f 31/69/36 17/66/20 30/67/36
f 22/39/24 32/70/37 21/38/23
f 21/44/28 32/71/38 22/43/27
f 33/72/39 18/31/18 20/33/19
f 20/37/22 18/35/21 33/73/40

usemtl stone(Clone)

f 36/76/41 35/75/41 34/74/41
f 35/75/41 36/76/41 37/77/41
f 40/80/42 39/79/42 38/78/42
f 39/79/42 40/80/42 41/81/42
f 39/84/4 42/83/4 38/82/4
f 42/83/4 39/84/4 43/85/4
f 43/85/4 39/84/4 36/86/4
f 43/85/4 36/86/4 34/87/4
f 44/90/2 41/89/2 40/88/2
f 41/89/2 44/90/2 45/91/2
f 41/89/2 45/91/2 37/92/2
f 37/92/2 45/91/2 35/93/2
f 40/96/43 42/95/43 44/94/43
f 42/95/43 40/96/43 38/97/43
f 45/99/44 42/95/44 43/98/44
f 42/95/44 45/99/44 44/94/44
f 35/101/45 43/98/45 34/100/45
f 43/98/45 35/101/45 45/99/45
f 41/81/46 36/76/46 39/79/46
f 36/76/46 41/81/46 37/77/46
f 48/79/41 47/103/41 46/102/41
f 47/103/41 48/79/41 49/81/41
f 52/105/42 51/95/42 50/104/42
f 51/95/42 52/105/42 53/94/42
f 51/108/4 54/107/4 50/106/4
f 54/107/4 51/108/4 55/109/4
f 55/109/4 51/108/4 48/110/4
f 55/109/4 48/110/4 46/111/4
f 56/114/2 53/113/2 52/112/2
f 53/113/2 56/114/2 57/115/2
f 53/113/2 57/115/2 49/116/2
f 49/116/2 57/115/2 47/117/2
f 52/103/43 54/79/43 56/81/43
f 54/79/43 52/103/43 50/118/43
f 57/94/44 54/79/44 55/95/44
f 54/79/44 57/94/44 56/81/44
f 47/105/45 55/95/45 46/119/45
f 55/95/45 47/105/45 57/94/45
f 53/94/46 48/79/46 51/95/46
f 48/79/46 53/94/46 49/81/46
f 60/122/47 59/121/47 58/120/47
f 59/121/47 60/122/47 61/123/47
f 64/94/48 63/125/48 62/124/48
f 63/125/48 64/94/48 65/96/48
f 63/128/4 66/127/4 62/126/4
f 66/127/4 63/128/4 67/129/4
f 67/129/4 63/128/4 60/130/4
f 67/129/4 60/130/4 58/131/4
f 68/134/2 65/133/2 64/132/2
f 65/133/2 68/134/2 69/135/2
f 65/133/2 69/135/2 61/136/2
f 61/136/2 69/135/2 59/137/2
f 64/94/49 66/138/49 68/105/49
f 66/138/49 64/94/49 62/124/49
f 69/81/50 66/139/50 67/79/50
f 66/139/50 69/81/50 68/140/50
f 59/121/51 67/141/51 58/120/51
f 67/141/51 59/121/51 69/142/51
f 65/144/52 60/95/52 63/143/52
f 60/95/52 65/144/52 61/94/52
f 72/122/47 71/121/47 70/120/47
f 71/121/47 72/122/47 73/123/47
f 76/94/48 75/125/48 74/124/48
f 75/125/48 76/94/48 77/96/48
f 75/147/4 78/146/4 74/145/4
f 78/146/4 75/147/4 79/135/4
f 79/135/4 75/147/4 72/136/4
f 79/135/4 72/136/4 70/148/4
f 80/151/2 77/150/2 76/149/2
f 77/150/2 80/151/2 81/129/2
f 77/150/2 81/129/2 73/130/2
f 73/130/2 81/129/2 71/152/2
f 76/94/49 78/138/49 80/105/49
f 78/138/49 76/94/49 74/124/49
f 81/94/50 78/153/50 79/95/50
f 78/153/50 81/94/50 80/121/50
f 71/121/51 79/141/51 70/120/51
f 79/141/51 71/121/51 81/142/51
f 77/155/52 72/79/52 75/154/52
f 72/79/52 77/155/52 73/81/52
f 39/79/41 83/103/41 82/102/41
f 83/103/41 39/79/41 41/81/41
f 86/105/42 85/95/42 84/104/42
f 85/95/42 86/105/42 87/94/42
f 85/158/4 88/157/4 84/156/4
f 88/157/4 85/158/4 42/83/4
f 42/83/4 85/158/4 39/84/4
f 42/83/4 39/84/4 82/159/4
f 89/162/2 87/161/2 86/160/2
f 87/161/2 89/162/2 44/90/2
f 87/161/2 44/90/2 41/89/2
f 41/89/2 44/90/2 83/163/2
f 86/103/43 88/79/43 89/81/43
f 88/79/43 86/103/43 84/118/43
f 44/94/44 88/79/44 42/95/44
f 88/79/44 44/94/44 89/81/44
f 83/105/45 42/95/45 82/119/45
f 42/95/45 83/105/45 44/94/45
f 87/94/46 39/79/46 85/95/46
f 39/79/46 87/94/46 41/81/46
f 92/166/41 91/165/41 90/164/41
f 91/165/41 92/166/41 93/167/41
f 95/169/42 36/76/42 94/168/42
f 36/76/42 95/169/42 37/77/42
f 36/86/4 43/85/4 94/170/4
f 43/85/4 36/86/4 96/171/4
f 96/171/4 36/86/4 92/172/4
f 96/171/4 92/172/4 90/173/4
f 45/91/2 37/92/2 95/174/2
f 37/92/2 45/91/2 97/175/2
f 37/92/2 97/175/2 93/176/2
f 93/176/2 97/175/2 91/177/2
f 95/178/43 43/98/43 45/99/43
f 43/98/43 95/178/43 94/179/43
f 97/181/44 43/98/44 96/180/44
f 43/98/44 97/181/44 45/99/44
f 91/183/45 96/180/45 90/182/45
f 96/180/45 91/183/45 97/181/45
f 37/77/46 92/166/46 36/76/46
f 92/166/46 37/77/46 93/167/46
f 100/186/41 99/185/41 98/184/41
f 99/185/41 100/186/41 101/187/41
f 104/189/42 103/166/42 102/188/42
f 103/166/42 104/189/42 105/167/42
f 103/192/4 106/191/4 102/190/4
f 106/191/4 103/192/4 107/193/4
f 107/193/4 103/192/4 100/194/4
f 107/193/4 100/194/4 98/195/4
f 108/198/2 105/197/2 104/196/2
f 105/197/2 108/198/2 109/199/2
f 105/197/2 109/199/2 101/200/2
f 101/200/2 109/199/2 99/201/2
f 104/202/43 106/180/43 108/181/43
f 106/180/43 104/202/43 102/203/43
f 109/205/44 106/180/44 107/204/44
f 106/180/44 109/205/44 108/181/44
f 99/207/45 107/204/45 98/206/45
f 107/204/45 99/207/45 109/205/45
f 105/167/46 100/186/46 103/166/46
f 100/186/46 105/167/46 101/187/46
f 112/210/47 111/209/47 110/208/47
f 111/209/47 112/210/47 113/211/47
f 116/214/48 115/213/48 114/212/48
f 115/213/48 116/214/48 117/215/48
f 115/218/4 118/217/4 114/216/4
f 118/217/4 115/218/4 119/219/4
f 119/219/4 115/218/4 112/220/4
f 119/219/4 112/220/4 110/221/4
f 120/224/2 117/223/2 116/222/2
f 117/223/2 120/224/2 121/225/2
f 117/223/2 121/225/2 113/226/2
f 113/226/2 121/225/2 111/227/2
f 116/214/49 118/229/49 120/228/49
f 118/229/49 116/214/49 114/212/49
f 121/81/50 118/139/50 119/79/50
f 118/139/50 121/81/50 120/140/50
f 111/209/51 119/230/51 110/208/51
f 119/230/51 111/209/51 121/231/51
f 117/144/52 112/95/52 115/143/52
f 112/95/52 117/144/52 113/94/52
f 124/233/41 123/215/41 122/232/41
f 123/215/41 124/233/41 125/214/41
f 128/236/42 127/235/42 126/234/42
f 127/235/42 128/236/42 129/237/42
f 127/240/4 130/239/4 126/238/4
f 130/239/4 127/240/4 131/241/4
f 131/241/4 127/240/4 124/242/4
f 131/241/4 124/242/4 122/243/4
f 132/246/2 129/245/2 128/244/2
f 129/245/2 132/246/2 133/247/2
f 129/245/2 133/247/2 125/248/2
f 125/248/2 133/247/2 123/249/2
f 128/252/43 130/251/43 132/250/43
f 130/251/43 128/252/43 126/253/43
f 133/209/44 130/251/44 131/254/44
f 130/251/44 133/209/44 132/250/44
f 123/211/45 131/254/45 122/255/45
f 131/254/45 123/211/45 133/209/45
f 129/237/46 124/233/46 127/235/46
f 124/233/46 129/237/46 125/214/46
f 136/210/47 135/209/47 134/208/47
f 135/209/47 136/210/47 137/211/47
f 140/214/48 139/213/48 138/212/48
f 139/213/48 140/214/48 141/215/48
f 139/258/4 142/257/4 138/256/4
f 142/257/4 139/258/4 143/225/4
f 143/225/4 139/258/4 136/226/4
f 143/225/4 136/226/4 134/259/4
f 144/262/2 141/261/2 140/260/2
f 141/261/2 144/262/2 145/219/2
f 141/261/2 145/219/2 137/220/2
f 137/220/2 145/219/2 135/263/2
f 140/214/49 142/229/49 144/228/49
f 142/229/49 140/214/49 138/212/49
f 145/94/50 142/153/50 143/95/50
f 142/153/50 145/94/50 144/121/50
f 135/209/51 143/230/51 134/208/51
f 143/230/51 135/209/51 145/231/51
f 141/155/52 136/79/52 139/154/52
f 136/79/52 141/155/52 137/81/52
f 147/233/41 137/215/41 146/232/41
f 137/215/41 147/233/41 148/214/41
f 151/236/42 150/235/42 149/234/42
f 150/235/42 151/236/42 152/237/42
f 150/266/4 153/265/4 149/264/4
f 153/265/4 150/266/4 154/259/4
f 154/259/4 150/266/4 147/227/4
f 154/259/4 147/227/4 146/226/4
f 155/269/2 152/268/2 151/267/2
f 152/268/2 155/269/2 135/263/2
f 152/268/2 135/263/2 148/221/2
f 148/221/2 135/263/2 137/220/2
f 151/252/43 153/251/43 155/250/43
f 153/251/43 151/252/43 149/253/43
f 135/209/44 153/251/44 154/254/44
f 153/251/44 135/209/44 155/250/44
f 137/211/45 154/254/45 146/255/45
f 154/254/45 137/211/45 135/209/45
f 152/237/46 147/233/46 150/235/46
f 147/233/46 152/237/46 148/214/46
f 150/235/41 157/271/41 156/270/41
f 157/271/41 150/235/41 152/237/41
f 160/273/42 159/186/42 158/272/42
f 159/186/42 160/273/42 161/187/42
f 159/276/4 162/275/4 158/274/4
f 162/275/4 159/276/4 153/265/4
f 153/265/4 159/276/4 150/266/4
f 153/265/4 150/266/4 156/277/4
f 163/280/2 161/279/2 160/278/2
f 161/279/2 163/280/2 155/269/2
f 161/279/2 155/269/2 152/268/2
f 152/268/2 155/269/2 157/281/2
f 160/282/43 162/204/43 163/205/43
f 162/204/43 160/282/43 158/283/43
f 155/250/44 162/204/44 153/251/44
f 162/204/44 155/250/44 163/205/44
f 157/285/45 153/251/45 156/284/45
f 153/251/45 157/285/45 155/250/45
f 161/187/46 150/235/46 159/186/46
f 150/235/46 161/187/46 152/237/46
f 159/186/41 165/185/41 164/184/41
f 165/185/41 159/186/41 161/187/41
f 167/189/42 92/166/42 166/188/42
f 92/166/42 167/189/42 93/167/42
f 92/172/4 96/171/4 166/286/4
f 96/171/4 92/172/4 162/275/4
f 162/275/4 92/172/4 159/276/4
f 162/275/4 159/276/4 164/287/4
f 97/175/2 93/176/2 167/288/2
f 93/176/2 97/175/2 163/280/2
f 93/176/2 163/280/2 161/279/2
f 161/279/2 163/280/2 165/289/2
f 167/202/43 96/180/43 97/181/43
f 96/180/43 167/202/43 166/203/43
f 163/205/44 96/180/44 162/204/44
f 96/180/44 163/205/44 97/181/44
f 165/207/45 162/204/45 164/206/45
f 162/204/45 165/207/45 163/205/45
f 93/167/46 159/186/46 92/166/46
f 159/186/46 93/167/46 161/187/46
f 103/166/41 169/165/41 168/164/41
f 169/165/41 103/166/41 105/167/41
f 172/169/42 171/76/42 170/168/42
f 171/76/42 172/169/42 173/77/42
f 171/292/4 174/291/4 170/290/4
f 174/291/4 171/292/4 106/191/4
f 106/191/4 171/292/4 103/192/4
f 106/191/4 103/192/4 168/293/4
f 175/296/2 173/295/2 172/294/2
f 173/295/2 175/296/2 108/198/2
f 173/295/2 108/198/2 105/197/2
f 105/197/2 108/198/2 169/297/2
f 172/178/43 174/98/43 175/99/43
f 174/98/43 172/178/43 170/179/43
f 108/181/44 174/98/44 106/180/44
f 174/98/44 108/181/44 175/99/44
f 169/183/45 106/180/45 168/182/45
f 106/180/45 169/183/45 108/181/45
f 173/77/46 103/166/46 171/76/46
f 103/166/46 173/77/46 105/167/46
f 178/299/41 177/75/41 176/298/41
f 177/75/41 178/299/41 173/77/41
f 181/80/42 180/301/42 179/300/42
f 180/301/42 181/80/42 49/81/42
f 180/110/4 182/109/4 179/302/4
f 182/109/4 180/110/4 183/291/4
f 183/291/4 180/110/4 178/292/4
f 183/291/4 178/292/4 176/303/4
f 57/115/2 49/116/2 181/304/2
f 49/116/2 57/115/2 175/296/2
f 49/116/2 175/296/2 173/295/2
f 173/295/2 175/296/2 177/305/2
f 181/96/43 182/306/43 57/94/43
f 182/306/43 181/96/43 179/307/43
f 175/99/44 182/306/44 183/308/44
f 182/306/44 175/99/44 57/94/44
f 177/101/45 183/308/45 176/309/45
f 183/308/45 177/101/45 175/99/45
f 49/81/46 178/299/46 180/301/46
f 178/299/46 49/81/46 173/77/46
f 186/311/41 185/271/41 184/310/41
f 185/271/41 186/311/41 129/237/41
f 189/273/42 188/313/42 187/312/42
f 188/313/42 189/273/42 101/187/42
f 188/194/4 190/193/4 187/314/4
f 190/193/4 188/194/4 191/239/4
f 191/239/4 188/194/4 186/240/4
f 191/239/4 186/240/4 184/315/4
f 109/199/2 101/200/2 189/316/2
f 101/200/2 109/199/2 132/246/2
f 101/200/2 132/246/2 129/245/2
f 129/245/2 132/246/2 185/317/2
f 189/282/43 190/318/43 109/205/43
f 190/318/43 189/282/43 187/319/43
f 132/250/44 190/318/44 191/320/44
f 190/318/44 132/250/44 109/205/44
f 185/285/45 191/320/45 184/321/45
f 191/320/45 185/285/45 132/250/45
f 101/187/46 186/311/46 188/313/46
f 186/311/46 101/187/46 129/237/46

